{"title":"Chronicle (2012) TS READNFO XviD-KiNGSEED","uid":7018286,"size":835775180,"categoryP":"video","categoryS":"movies","magnet":"?xt=urn:btih:f1fb9518b3ac35e448068de248b6c1e03e54a675&amp;dn=Chronicle+%282012%29+TS+READNFO+XviD-KiNGSEED&amp;tr=udp%3A%2F%2Ftracker.openbittorrent.com%3A80&amp;tr=udp%3A%2F%2Fopen.demonii.com%3A1337&amp;tr=udp%3A%2F%2Ftracker.coppersurfer.tk%3A6969&amp;tr=udp%3A%2F%2Fexodus.desync.com%3A6969","seeders":0,"leechers":0,"uploader":"TvTeam","files":5,"time":1328741863,"description":". \n &lt;a href=&quot;\nhttp://www.torrenting.com&quot; rel=&quot;nofollow&quot; target=&quot;_NEW&quot;&gt;\nhttp://www.torrenting.com&lt;/a&gt;          :     Once &amp; For all ;)\n\n\n               www . Torrenting . Com \n\n(((((((((((((= Enjoy No RAR releases =))))))))))))))))))))\n\n\n...................................NFO:....................................\n\n.oooo    oooo  o8o  ooooo      ooo   .oooooo.     .oooooo..o oooooooooooo oooooooooooo oooooooooo.   \n`888   .8P'   `&quot;'  `888b.     `8'  d8P'  `Y8b   d8P'    `Y8 `888'     `8 `888'     `8 `888'   `Y8b  \n 888  d8'    oooo   8 `88b.    8  888           Y88bo.       888          888          888      888 \n 88888[      `888   8   `88b.  8  888            `&quot;Y8888o.   888oooo8     888oooo8     888      888 \n 888`88b.     888   8     `88b.8  888     ooooo      `&quot;Y88b  888    &quot;     888    &quot;     888      888 \n 888  `88b.   888   8       `888  `88.    .88'  oo     .d8P  888       o  888       o  888     d88' \no888o  o888o o888o o8o        `8   `Y8bood8P'   8&quot;&quot;88888P'  o888ooooood8 o888ooooood8 o888bood8P'   \n----------------------------------------------------------------------------------------------------\n                             Chronicle (2012) TS READNFO XviD-KiNGSEED                              \n----------------------------------------------------------------------------------------------------\nFormat                           : AVI\nFormat/Info                      : Audio Video Interleave\nFile size                        : 772 MiB\nDuration                         : 1h 15mn\nOverall bit rate                 : 1 431 Kbps\n\nVideo\nID                               : 0\nFormat                           : MPEG-4 Visual\nFormat profile                   : Advanced Simple@L5\nFormat settings, BVOP            : 2\nFormat settings, QPel            : No\nFormat settings, GMC             : No warppoints\nFormat settings, Matrix          : Default (H.263)\nMuxing mode                      : Packed bitstream\nCodec ID                         : XVID\nCodec ID/Hint                    : XviD\nDuration                         : 1h 15mn\nBit rate                         : 1 293 Kbps\nWidth                            : 680 pixels\nHeight                           : 288 pixels\nDisplay aspect ratio             : 2.35:1\nFrame rate                       : 25.000 fps\nColor space                      : YUV\nChroma subsampling               : 4:2:0\nBit depth                        : 8 bits\nScan type                        : Progressive\nCompression mode                 : Lossy\nBits/(Pixel*Frame)               : 0.264\nStream size                      : 697 MiB (90%)\nWriting library                  : XviD 64\n\nAudio\nID                               : 1\nFormat                           : MPEG Audio\nFormat version                   : Version 1\nFormat profile                   : Layer 3\nMode                             : Joint stereo\nMode extension                   : MS Stereo\nCodec ID                         : 55\nCodec ID/Hint                    : MP3\nDuration                         : 1h 15mn\nBit rate mode                    : Constant\nBit rate                         : 128 Kbps\nChannel(s)                       : 2 channels\nSampling rate                    : 44.1 KHz\nCompression mode                 : Lossy\nStream size                      : 69.0 MiB (9%)\nLanguage                         : English\n-----------------------------------------------------------------------------------------------------\nTitle: Chronicle (I) (2012)\n\nIMDB: &lt;a href=&quot; http://www.imdb.com/title/tt1706593/&quot; rel=&quot;nofollow&quot; target=&quot;_NEW&quot;&gt; http://www.imdb.com/title/tt1706593/&lt;/a&gt;\n\nPlot:  Three high school friends gain superpowers after making an incredible\ndiscovery. Soon, though, they find their lives spinning out of control and their \nbond tested as they embrace their darker sides.\n-----------------------------------------------------------------------------------------------------\nSource(s): MiSTERE + INSPiRAL (Thanks!)\n\nNotes: \nBig thanks goes to MiSTERE for bringing us the LiNE audio and to INSPiRAL for the sweet job in \nfiltering it. We ran a whole bunch of filters over the video. We adjusted/tweaked the HSV, RGB, White \nBalance and Contrast/Brightness. As well as that we ran a slight denoise filter as well as a slight \nsharpen. Anyway, after filters galore this came out looking pretty nice. Only thing left to do after \nthat was to mux INSPiRAL's filtered audio to the video. Came out looking pretty nice. Sample is \nincluded so you can check that for quality. Not the best video for a TS but it's more than watchable. \nEnjoy.\n\nREADNFO: This is our first proper release. :)\n------------------------------------------------------------------------------------------------------\nGreets: To All Of The Hard-Working p2p &amp; Scene groups + All The Source Providers.\n\nIf you have something you can offer, please contact us at: &lt;a class=&quot;__cf_email__&quot; href=&quot;/cdn-cgi/l/email-protection&quot; data-cfemail=&quot;6c0705020b1f0909082c04191f04420f0301&quot;&gt;[email&amp;#160;protected]&lt;/a&gt;&lt;script cf-hash='f9e31' type=&quot;text/javascript&quot;&gt;\n/* &lt;![CDATA[ */!function(){try{var t=&quot;currentScript&quot;in document?document.currentScript:function(){for(var t=document.getElementsByTagName(&quot;script&quot;),e=t.length;e--;)if(t[e].getAttribute(&quot;cf-hash&quot;))return t[e]}();if(t&amp;&amp;t.previousSibling){var e,r,n,i,c=t.previousSibling,a=c.getAttribute(&quot;data-cfemail&quot;);if(a){for(e=&quot;&quot;,r=parseInt(a.substr(0,2),16),n=2;a.length-n;n+=2)i=parseInt(a.substr(n,2),16)^r,e+=String.fromCharCode(i);e=document.createTextNode(e),c.parentNode.replaceChild(e,c)}}}catch(u){}}();/* ]]&gt; */&lt;/script&gt;\n&lt;a class=&quot;__cf_email__&quot; href=&quot;/cdn-cgi/l/email-protection&quot; data-cfemail=&quot;694444444444444444444444444444444444444444444444444444444444444444444444444444444444444444444444444444444444444444444444444444444444&quot;&gt;[email&amp;#160;protected]&lt;/a&gt;&lt;script cf-hash='f9e31' type=&quot;text/javascript&quot;&gt;\n/* &lt;![CDATA[ */!function(){try{var t=&quot;currentScript&quot;in document?document.currentScript:function(){for(var t=document.getElementsByTagName(&quot;script&quot;),e=t.length;e--;)if(t[e].getAttribute(&quot;cf-hash&quot;))return t[e]}();if(t&amp;&amp;t.previousSibling){var e,r,n,i,c=t.previousSibling,a=c.getAttribute(&quot;data-cfemail&quot;);if(a){for(e=&quot;&quot;,r=parseInt(a.substr(0,2),16),n=2;a.length-n;n+=2)i=parseInt(a.substr(n,2),16)^r,e+=String.fromCharCode(i);e=document.createTextNode(e),c.parentNode.replaceChild(e,c)}}}catch(u){}}();/* ]]&gt; */&lt;/script&gt;-------------------------------------","torrent":{"xt":"urn:btih:f1fb9518b3ac35e448068de248b6c1e03e54a675","amp;dn":"Chronicle+%282012%29+TS+READNFO+XviD-KiNGSEED","amp;tr":["udp%3A%2F%2Ftracker.openbittorrent.com%3A80","udp%3A%2F%2Fopen.demonii.com%3A1337","udp%3A%2F%2Ftracker.coppersurfer.tk%3A6969","udp%3A%2F%2Fexodus.desync.com%3A6969"],"infoHash":"f1fb9518b3ac35e448068de248b6c1e03e54a675","infoHashBuffer":{"type":"Buffer","data":[241,251,149,24,179,172,53,228,72,6,141,226,72,182,193,224,62,84,166,117]},"announce":[],"urlList":[]}}